# xmcd
#
# Track frame offsets: 
#        150
#        16018
#        35034
#        46806
#        57857
#        73004
#        89708
#        102009
#        116177
#        127193
#        145541
#        162273
#
# Disc length: 2353 seconds
#
# Revision: 0
# Processed by: cddbd v1.5PL3 Copyright (c) Steve Scherf et al.
# Submitted via: ExactAudioCopy v0.95a5
#
DISCID=a4092f0c
DTITLE=Riverbend Bluegrass Band - When The Sun Comes Up Again
DYEAR=2002
DGENRE=Bluegrass
TTITLE0=If Your Ever In Oklahoma
TTITLE1=Good Hearted Woman
TTITLE2=Before I'm Over You
TTITLE3=Love Please Come Home
TTITLE4=When The Sun Comes Up Again
TTITLE5=Turn The Page
TTITLE6=Shuckin The Corn
TTITLE7=Just As The Sun Went Down
TTITLE8=Nobody's Fool
TTITLE9=Going To The Hilltop
TTITLE10=California Blues
TTITLE11=Train Train
EXTD=
EXTT0=
EXTT1=
EXTT2=
EXTT3=
EXTT4=
EXTT5=
EXTT6=
EXTT7=
EXTT8=
EXTT9=
EXTT10=
EXTT11=
PLAYORDER=
